<?xml version="1.0" encoding="utf-8"?>
<!-- Generator: Adobe Illustrator 19.2.0, SVG Export Plug-In . SVG Version: 6.00 Build 0)  -->
<svg version="1.1" id="Слой_1" xmlns="http://www.w3.org/2000/svg" xmlns:xlink="http://www.w3.org/1999/xlink" x="0px" y="0px"
	 viewBox="0 0 499 506" style="enable-background:new 0 0 499 506;" xml:space="preserve">
<style type="text/css">
	.st0{fill:#4670E3;}
</style>
<g>
	<path class="st0" d="M498.9,41l0-3c0-3.9-1.9-7.6-5.1-9.8c-21.6-15.1-43.5-22.5-66.9-22.5c-1.2,0-2.3,0-3.5,0.1
		c-22,0.7-44.7,7.8-69.4,21.8c-17.9,10.1-36.7,15.3-55.8,15.3c-16.7,0-34-3.9-51.5-11.6l-1.8-0.8V12c0-6.6-5.4-12-12-12
		s-12,5.4-12,12v482c0,6.6,5.4,12,12,12s12-5.4,12-12V206.2l4.2,1.9c14.1,6.2,28.9,9.4,43.9,9.4c1.1,0,2.3,0,3.4-0.1
		c22-0.7,44.7-7.8,69.3-21.8c17.9-10.1,36.7-15.3,55.8-15.3c19,0,38.9,5.1,59,15.1l0.1,0.1l0.1,0.1c1.9,1.1,4,1.7,6.1,1.7
		c6.6,0,12-5.4,12-12L498.9,41L498.9,41z"/>
	<path class="st0" d="M40.3,218c-10.5,0-20.6,4.2-28.3,11.9C4.2,237.5,0,247.5,0,258l0,90.4c0,15.1,8.4,28.8,21.9,35.6l1.6,0.8
		L23.6,494c0,6.6,5.4,12,12,12H125c6.6,0,12-5.4,12-12l0-192h48v-84l-6.2,0C148.3,218,68.1,218,40.3,218z"/>
	<path class="st0" d="M80.4,184.4c35.1,0,63.7-28.6,63.7-63.7S115.6,57,80.4,57s-63.7,28.6-63.7,63.7S45.3,184.4,80.4,184.4z"/>
</g>
</svg>
