<?xml version="1.0" encoding="UTF-8" standalone="no"?>
<!DOCTYPE svg PUBLIC "-//W3C//DTD SVG 1.1//EN"
"http://www.w3.org/Graphics/SVG/1.1/DTD/svg11.dtd">


<!-- Page 1 -->
<svg x="0" y="0" width="67" height="58" viewBox="0 0 67 58" version="1.1" xmlns="http://www.w3.org/2000/svg" xmlns:xlink="http://www.w3.org/1999/xlink"
style="display: block;margin-left: auto;margin-right: auto;">
<defs>

<style type="text/css"><![CDATA[

.g0_1{
fill: #4670E3;
}

]]></style>

</defs>
<path d="M0,0
L0,58
L67,58
L67,0 Z " 
fill="#FFFFFF" stroke="none" />
<path d="M62.9,28.9C60.5,26.4,57.4,25.1,54.1,24.8C57,22.2,58.8,18.3,58.8,14.2C58.8,6.4,52.4,0,44.6,0C37.1,0,31,5.8,30.4,13.1c6.7,2.9,11.3,9.5,11.3,17.3c0,2.8,-.6,5.5,-1.8,8.1c1.7,.9,3.3,2,4.7,3.5c3.5,3.5,5.5,8.6,5.5,13.6v.3L50,58.4H66.9l.2,-18.8c0,-4.3,-1.6,-8,-4.2,-10.7Z" class="g0_1" />
<path d="M32.4,40.9c2.9,-2.6,4.7,-6.4,4.7,-10.5C37.1,22.6,30.7,16.2,22.9,16.2C15.1,16.2,8.7,22.6,8.7,30.4c0,4.1,1.8,7.9,4.7,10.5C6.1,41.6,.2,47.7,.2,55.2L0,57.9H45.5l.2,-2.6c0,-3.8,-1.5,-7.5,-4.1,-10.2C38.8,42.6,35.8,41.3,32.4,40.9Z" class="g0_1" />

</svg>
