<?xml version="1.0" encoding="utf-8"?>
<!-- Generator: Adobe Illustrator 19.2.0, SVG Export Plug-In . SVG Version: 6.00 Build 0)  -->
<svg version="1.1" id="Слой_1" xmlns="http://www.w3.org/2000/svg" xmlns:xlink="http://www.w3.org/1999/xlink" x="0px" y="0px"
	 viewBox="0 0 512 399.8" style="enable-background:new 0 0 512 399.8;" xml:space="preserve">
<style type="text/css">
	.st0{fill:#75BC62;}
</style>
<path class="st0" d="M134,125.7L67,14.5L0,125.7H134z"/>
<path class="st0" d="M323,125.7L256,14.5l-67,111.1H323z"/>
<path class="st0" d="M350.5,111.1L417.5,0h-134L350.5,111.1z"/>
<path class="st0" d="M161.5,111.1L228.5,0h-134L161.5,111.1z"/>
<path class="st0" d="M378,125.7h134L445,14.5L378,125.7z"/>
<path class="st0" d="M362,156.7l-71.2,235.2l213.6-235.2H362z"/>
<path class="st0" d="M182.4,156.7L234.6,329l21.4,70.8l73.6-243.1H182.4z"/>
<path class="st0" d="M7.6,156.7l213.6,235.2L150,156.7H7.6z"/>
</svg>
