<?xml version="1.0" encoding="utf-8"?>
<!-- Generator: Adobe Illustrator 19.2.0, SVG Export Plug-In . SVG Version: 6.00 Build 0)  -->
<svg version="1.1" id="Слой_1" xmlns="http://www.w3.org/2000/svg" xmlns:xlink="http://www.w3.org/1999/xlink" x="0px" y="0px"
	 viewBox="0 0 672.6 457.5" style="enable-background:new 0 0 672.6 457.5;" xml:space="preserve">
<style type="text/css">
	.st0{fill:#4670E3;}
</style>
<path class="st0" d="M671.1,140.6c-12.8-23-29.3-39.2-50.4-49.4c-1-0.5-2.1-1-3.1-1.5c-20.1-9-43.6-12.5-71.9-10.7
	c-20.5,1.3-39.7-2.3-56.9-10.6c-15-7.3-28.9-18.4-41.3-32.9l-1.3-1.5l8.1-16.7c2.9-6,0.4-13.1-5.6-16c-6-2.9-13.1-0.4-16,5.6
	l-96.5,198.6L239.8,6.8c-2.9-6-10.1-8.4-16-5.6c-6,2.9-8.4,10.1-5.6,16l8.1,16.7l-1.3,1.5c-12.4,14.6-26.3,25.7-41.3,32.9
	c-17.2,8.4-36.3,11.9-56.9,10.6C98.6,77.2,75.1,80.7,55,89.7c-1.1,0.5-2.1,1-3.1,1.5c-21.1,10.2-37.6,26.4-50.4,49.4
	c-1.9,3.4-2,7.5-0.3,11l1.3,2.7l-0.1,0l63,129.6c2.9,6,10.1,8.4,16,5.6c1.9-0.9,3.6-2.4,4.8-4.2l0.1-0.1l0.1-0.1
	c13.7-17.8,29.3-31,46.5-39.3c17.2-8.4,36.3-11.9,56.9-10.6c28.3,1.8,51.8-1.7,71.9-10.7c1.1-0.5,2.1-1,3.1-1.5
	c13.5-6.5,25.4-15.8,35.4-27.6l3-3.5l19.9,40.9L222.2,440.3c-2.9,6-0.4,13.1,5.6,16c6,2.9,13.1,0.4,16-5.6l92.5-190.5l92.5,190.5
	c2.9,6,10.1,8.4,16,5.6s8.4-10.1,5.6-16L349.7,232.9l19.9-40.9l3,3.5c10,11.8,21.9,21.1,35.4,27.6c1,0.5,2.1,1,3.1,1.5
	c20.1,9,43.6,12.5,71.9,10.7c20.5-1.3,39.7,2.3,56.9,10.6c17.1,8.3,32.8,21.6,46.5,39.3l0.1,0.1l0.1,0.1c1.2,1.8,2.8,3.3,4.8,4.2
	c6,2.9,13.1,0.4,16-5.6l63-129.6l-0.1,0l1.3-2.7C673.1,148.1,673,144,671.1,140.6z"/>
</svg>
